<svg width="20" height="20" viewBox="0 0 20 20" fill="none" xmlns="http://www.w3.org/2000/svg">
<path d="M10.6598 6.86889C10.7957 6.68239 10.9404 6.50683 11.0927 6.34248C11.6917 5.69582 12.4076 5.22284 13.1621 4.94131M6.59573 7.42261L12.5774 13.4043C12.6378 13.4647 12.743 13.4575 12.8122 13.3883L15.8846 10.3159C17.847 8.35351 18.0497 5.37469 16.3375 3.66247C14.6253 1.95025 11.6465 2.15302 9.68414 4.11536L6.61172 7.18778C6.54246 7.25704 6.5353 7.36218 6.59573 7.42261ZM6.79634 7.62321L12.3768 13.2037L9.53427 16.0462C7.76816 17.8123 5.08722 17.9948 3.54622 16.4538C2.00522 14.9128 2.18772 12.2318 3.95383 10.4657L6.79634 7.62321Z" stroke="#12B76A" stroke-width="1.5" stroke-linecap="round"/>
</svg>
