<svg width="20" height="20" viewBox="0 0 20 20" fill="none" xmlns="http://www.w3.org/2000/svg">
<path d="M5.9135 8.2959C5.61278 8.29824 5.31119 8.31072 5.00013 8.33334C3.7818 8.42192 2.72179 9.08567 2.54728 10.2947L2.51334 10.5298C2.41277 11.2267 2.89684 11.8771 3.59687 11.9521C4.32403 12.0301 4.98538 12.0732 5.63938 12.0817M13.9936 8.2955C14.3253 8.29577 14.6569 8.30838 15 8.33333C16.2184 8.42192 17.2784 9.08567 17.4529 10.2947L17.4868 10.5298C17.5874 11.2267 17.1033 11.8771 16.4033 11.9521C15.6266 12.0354 14.9249 12.0789 14.2271 12.083M11.8741 8.92846C11.8741 10.0156 10.9928 10.8969 9.90564 10.8969C8.81851 10.8969 7.93722 10.0156 7.93722 8.92846C7.93722 7.84134 8.81851 6.96005 9.90564 6.96005C10.9928 6.96005 11.8741 7.84134 11.8741 8.92846ZM7.46403 16.9369C9.2811 17.1307 10.7244 17.133 12.5388 16.9384C13.3119 16.8555 13.8465 16.1373 13.7354 15.3677L13.6979 15.108C13.5052 13.7728 12.4719 12.6814 11.1264 12.5835C10.3588 12.5277 9.64345 12.5278 8.87441 12.5838C7.5284 12.6819 6.49429 13.7734 6.3015 15.1092L6.26461 15.3647C6.15337 16.1354 6.68973 16.8543 7.46403 16.9369ZM4.19866 4.69907C4.19866 5.68347 4.99667 6.48148 5.98107 6.48148C6.96547 6.48148 7.76348 5.68347 7.76348 4.69907C7.76348 3.71468 6.96547 2.91666 5.98107 2.91666C4.99667 2.91666 4.19866 3.71468 4.19866 4.69907ZM15.8015 4.69907C15.8015 5.68347 15.0034 6.48148 14.019 6.48148C13.0347 6.48148 12.2366 5.68347 12.2366 4.69907C12.2366 3.71468 13.0347 2.91666 14.019 2.91666C15.0034 2.91666 15.8015 3.71468 15.8015 4.69907Z" stroke="#F79009" stroke-width="1.5" stroke-linecap="round"/>
</svg>
