<svg width="20" height="20" viewBox="0 0 20 20" fill="none" xmlns="http://www.w3.org/2000/svg">
<path d="M7.08333 5.06907V4.58333C7.08333 3.43274 8.01607 2.5 9.16667 2.5H10.8333C11.9839 2.5 12.9167 3.43274 12.9167 4.58333V5.06738M4.63823 17.2895C8.58697 17.5701 11.375 17.5707 15.3748 17.2881C16.3682 17.2179 17.1555 16.5581 17.2378 15.7297C17.5688 12.3954 17.6012 10.0606 17.2502 6.754C17.1632 5.93474 16.3812 5.28624 15.3984 5.21532C11.4104 4.92751 8.61899 4.92835 4.59873 5.21709C3.62072 5.28734 2.83974 5.92938 2.74926 6.74433C2.37852 10.0837 2.45047 12.4243 2.77375 15.7249C2.8551 16.5554 3.6424 17.2187 4.63823 17.2895Z" stroke="#2E90FA" stroke-width="1.5"/>
<path d="M10.9081 8.64214C10.3911 8.50783 10.0293 8.50822 9.50813 8.64297C9.38135 8.67575 9.28011 8.97537 9.26838 9.35568C9.25658 9.73847 9.24823 10.0931 9.24299 10.4332C9.24245 10.4682 9.21425 10.4965 9.17926 10.4971C8.84396 10.5031 8.49529 10.5114 8.12002 10.5216C7.73245 10.5321 7.4229 10.6342 7.38988 10.7633C7.25892 11.2752 7.25862 11.6366 7.39052 12.1551C7.42328 12.2838 7.73118 12.3859 8.11776 12.3966C8.4961 12.407 8.84685 12.4151 9.18326 12.4208C9.21821 12.4214 9.24641 12.4496 9.24704 12.4846C9.25302 12.8207 9.26132 13.1703 9.27156 13.5466C9.2821 13.9342 9.38416 14.2437 9.51325 14.2767C10.0251 14.4077 10.3865 14.408 10.905 14.2761C11.0338 14.2433 11.1359 13.9354 11.1465 13.5489C11.1569 13.1718 11.165 12.8221 11.1707 12.4867C11.1713 12.4517 11.1996 12.4235 11.2346 12.4229C11.5735 12.4176 11.9262 12.4094 12.3064 12.3982C12.6887 12.3869 12.9914 12.2855 13.0245 12.1581C13.1588 11.6411 13.1584 11.2793 13.0236 10.7582C12.9909 10.6314 12.6912 10.5301 12.3109 10.5184C11.9294 10.5066 11.5758 10.4983 11.2367 10.4931C11.2017 10.4925 11.1734 10.4642 11.1728 10.4292C11.1675 10.0911 11.1593 9.73936 11.1481 9.36019C11.1369 8.97787 11.0355 8.67524 10.9081 8.64214Z" stroke="#2E90FA" stroke-width="1.5"/>
</svg>
