<svg width="20" height="20" viewBox="0 0 20 20" fill="none" xmlns="http://www.w3.org/2000/svg">
<path d="M5.83333 17.5H14.1667M5.83333 17.5V5.41667M5.83333 17.5H3.75M14.1667 17.5V5.41667M14.1667 17.5H16.25M5.83333 5.41667V4.58333C5.83333 3.43274 6.76607 2.5 7.91667 2.5H12.0833C13.2339 2.5 14.1667 3.43274 14.1667 4.58333V5.41667M5.83333 5.41667L4.53189 6.45782C4.03769 6.85318 3.75 7.45175 3.75 8.08464V17.5M2.5 17.5H3.75M14.1667 5.41667L15.4681 6.45782C15.9623 6.85318 16.25 7.45175 16.25 8.08464V17.5M16.25 17.5H17.5M8.33333 6.25H10M10 6.25H11.6667M10 6.25V4.58333M10 6.25V7.91667M8.125 10.4167H8.95833M11.0417 10.4167H11.875M8.75 17.5H11.25C11.4801 17.5 11.6667 17.3135 11.6667 17.0833V14.1667C11.6667 13.4763 11.107 12.9167 10.4167 12.9167H9.58333C8.89298 12.9167 8.33333 13.4763 8.33333 14.1667V17.0833C8.33333 17.3135 8.51988 17.5 8.75 17.5Z" stroke="#F63D68" stroke-width="1.5" stroke-linecap="round"/>
</svg>
